<svg width="203" height="158" viewBox="0 0 203 158" fill="none" xmlns="http://www.w3.org/2000/svg"><path fill-rule="evenodd" clip-rule="evenodd" d="M153.313 75.689a10.516 10.516 0 01-.011-.504c0-28.907-23.723-52.63-52.63-52.63-6.228 0-11.278-5.049-11.278-11.277C89.394 5.049 94.444 0 100.672 0c41.364 0 75.185 33.821 75.185 75.185 0 .166-.003.33-.01.495 7.475.575 15.136 1.535 20.407 2.265 3.896.54 6.746 3.886 6.746 7.82a8.012 8.012 0 01-1.603 4.81l-28.788 38.383c-3.799 5.065-11.397 5.065-15.195 0l-28.781-38.374a8.05 8.05 0 01-1.61-4.83c0-3.933 2.842-7.286 6.735-7.84 5.069-.722 12.353-1.657 19.555-2.225zm-52.641 81.51c6.229 0 11.278-5.05 11.278-11.278 0-6.229-5.049-11.278-11.278-11.278-28.907 0-52.63-23.723-52.63-52.63 0-.165-.003-.33-.01-.493 7.722-.582 15.733-1.564 21.188-2.3 3.9-.527 6.757-3.87 6.757-7.804 0-1.727-.56-3.409-1.597-4.79L56.983 43.428 45.586 28.233c-3.798-5.065-11.396-5.065-15.195 0L1.617 66.598A8.085 8.085 0 000 71.45c0 3.931 2.825 7.287 6.715 7.856 4.883.714 11.83 1.627 18.784 2.188a11.18 11.18 0 00-.012.52c0 41.363 33.821 75.185 75.185 75.185z" fill="#FFC166"/></svg>