<svg xmlns="http://www.w3.org/2000/svg" viewBox="0 0 512 512"><path fill="currentColor" d="M256 0c15.7 0 28.4 12.7 28.4 28.4v386.4l122.1-122.1c10.1-10.1 26.2-11.1 37.5-2.4l2.7 2.4c11.1 11.1 11.1 29.1 0 40.2L276.1 503.7c-.8.8-1.7 1.6-2.6 2.3-.2.2-.4.3-.6.5-.7.5-1.4 1-2.1 1.4-.3.2-.7.4-1 .6-.6.3-1.1.6-1.7.9l-1.5.6c-.6.2-1.1.4-1.7.6-.4.1-.9.3-1.3.4-.6.2-1.2.3-1.9.4l-1.5.3c-1.4.2-2.8.3-4.2.3l2.4-.1c-.5 0-1 .1-1.5.1h-1.8c-.5 0-1 0-1.5-.1-.6-.1-1.2-.1-1.8-.2l-1.5-.3c-.6-.1-1.2-.3-1.9-.4-.4-.1-.9-.3-1.3-.4-.6-.2-1.1-.4-1.7-.6l-1.5-.6c-.6-.3-1.2-.6-1.7-.9-.3-.2-.7-.4-1-.6-.7-.4-1.4-.9-2.1-1.4-1.1-.8-2.2-1.8-3.2-2.7l2.6 2.3c-.9-.7-1.8-1.5-2.6-2.3L65.3 333c-11.1-11.1-11.2-29.1-.1-40.2 11.1-11.1 29.1-11.2 40.2-.1l.1.1 122.1 122.1V28.4c0-14.4 10.8-26.6 25.1-28.3L256 0z"/></svg>