<svg id="icon-monogram" viewBox="0 0 512 512"><path fill="currentColor" d="M483.059 245.613l-9.62 26.02-143.203-10.296L512 226.566 472.633 187.2l-2.557 27.623-140.987 27.119 166.57-80.63-48.214-27.837 4.679 27.344-129.165 62.685L462.986 102.51l-53.777-14.409 11.597 25.2-108.539 93.98 103.94-153.113h-55.674l17.724 21.341-80.517 118.869 60.769-174.797-53.776 14.409 22.643 16.026-47.007 135.658L293.827 1.105l-48.215 27.837 26.02 9.62-10.295 143.202L226.566 0 187.2 39.367l27.622 2.558 27.119 140.987-80.629-166.57-27.837 48.214 27.343-4.679 62.686 129.165L102.51 49.015l-14.409 53.776 25.2-11.597 93.979 108.54L54.168 95.793v55.674l21.34-17.724 118.87 80.518-174.798-60.77 14.409 53.776 16.027-22.643 135.658 47.008L1.105 218.173l27.837 48.215 9.619-26.019 143.202 10.295L0 285.434l39.367 39.367 2.558-27.622 140.988-27.12-166.572 80.63 48.214 27.836-4.678-27.342 129.164-62.686L49.014 409.491l53.777 14.409-11.597-25.2 108.539-93.98-103.94 153.112h55.674l-17.724-21.34 80.517-118.87-60.769 174.798 53.776-14.409-22.643-16.026 47.008-135.659-13.459 184.569 48.215-27.836-26.02-9.619 10.295-143.203L285.434 512l39.367-39.366-27.623-2.558-27.119-140.987 80.629 166.571 27.837-48.215-27.343 4.679-62.685-129.164L409.49 462.986l14.409-53.776-25.2 11.596-93.979-108.538 153.112 103.939v-55.673l-21.34 17.723-118.87-80.517 174.798 60.77-14.409-53.777-16.026 22.643-135.659-47.007 184.569 13.458-27.836-48.214z"></path></svg>