<svg version="1.1" id="Layer_1" xmlns="http://www.w3.org/2000/svg" x="0" y="0" viewBox="0 0 225 225" xml:space="preserve"><style type="text/css">.st0{fill:#000}</style><path class="st0" d="M119 225H0V0h225v225h-69v-86.8h28.9c1.6-12.3 3.1-24 4.6-36.3-10.4 0-19.7-.1-29 .1-3.4.1-4.8-.9-4.6-4.5.2-6.3 0-12.7.1-19 .1-8.1 4.4-12.3 12.4-12.4 5.8-.1 11.7-.1 17.5 0 3.2.1 4.5-1 4.4-4.3-.2-8.2-.2-16.3 0-24.5.1-3.6-1.3-4.6-4.7-4.5-8.8.2-17.7-.1-26.5.1-19.1.4-34.8 12.8-38.7 31.4-1.5 7.4-.9 15.2-1.1 22.9-.1 4.8 0 9.5 0 14.7-8.8 0-17 .1-25.1 0-3.2-.1-4.4 1.2-4.4 4.4.1 9.3.2 18.7 0 28-.1 3.5 1.4 4.2 4.5 4.1 6.3-.2 12.7.3 19-.2 5.1-.4 6.2 1.7 6.1 6.3-.3 9.3-.1 18.7-.1 28L119 225z"/></svg>