<svg xmlns="http://www.w3.org/2000/svg" width="16" height="16" viewBox="0 0 80 80"><title>Glyph-Logo</title><defs><linearGradient x1="50%" y1="0%" x2="50%" y2="100%" id="a"><stop stop-color="#62E8FF" offset="0%"/><stop stop-color="#3CF" offset="100%"/></linearGradient></defs><path d="M33.276 0h13.448c11.087 0 15.468 1.225 19.77 3.526 4.303 2.301 7.679 5.677 9.98 9.98 2.3 4.302 3.526 8.683 3.526 19.77v13.448c0 11.087-1.225 15.468-3.526 19.77-2.301 4.303-5.677 7.679-9.98 9.98-4.302 2.3-8.683 3.526-19.77 3.526H33.276c-11.087 0-15.468-1.225-19.77-3.526-4.303-2.301-7.679-5.677-9.98-9.98C1.226 62.192 0 57.811 0 46.724V33.276c0-11.087 1.225-15.468 3.526-19.77 2.301-4.303 5.677-7.679 9.98-9.98C17.808 1.226 22.189 0 33.276 0zm1.009 6C24.86 6 21.137 7.042 17.48 8.997a20.39 20.39 0 0 0-8.483 8.483C7.042 21.137 6 24.86 6 34.285v11.43C6 55.14 7.042 58.863 8.997 62.52a20.39 20.39 0 0 0 8.483 8.483C21.137 72.958 24.86 74 34.285 74h11.43c9.425 0 13.148-1.042 16.805-2.997a20.39 20.39 0 0 0 8.483-8.483C72.958 58.863 74 55.14 74 45.715v-11.43c0-9.425-1.042-13.148-2.997-16.805a20.39 20.39 0 0 0-8.483-8.483C58.863 7.042 55.14 6 45.715 6h-11.43zm12.549 52.024v-4.288C44.41 56.799 40.505 58.5 35.455 58.5 27.713 58.5 23 53.736 23 47.066c0-6.874 4.915-10.957 13.802-11.025h9.964v-.68c0-3.88-2.558-6.126-7.54-6.126-3.232 0-7.002 1.089-10.773 3.199l-3.231-7.214C30.608 22.497 35.253 21 41.582 21c9.695 0 15.283 4.9 15.35 13.135L57 58.024H46.834zm-8.484-7.01c4.377 0 7.81-2.382 8.416-5.513v-3.267H38.62c-3.972 0-5.925 1.225-5.925 4.152 0 2.79 2.155 4.628 5.655 4.628z" fill="#000" fill-rule="evenodd"/></svg>