<svg xmlns="http://www.w3.org/2000/svg" width="30" height="30"  fill-rule="evenodd" xmlns:v="https://vecta.io/nano"><path d="M14.994.35c4.037 0 7.698 1.643 10.35 4.294s4.294 6.313 4.294 10.35-1.643 7.698-4.294 10.35-6.313 4.294-10.35 4.294-7.698-1.643-10.35-4.294S.35 19.032.35 14.994s1.643-7.698 4.294-10.35S10.957.35 14.994.35z" stroke="#000" stroke-width=".7" fill="#34b4cf"/><g fill="#000" fill-rule="nonzero"><path d="M23.651 10.994l-.071-.295c-.027-.13-.065-.258-.102-.387-.028-.098-.067-.19-.126-.275s-.113-.181-.157-.278l-.182-.4c-.051-.113-.118-.215-.198-.308l-.136-.157-.146-.191c-.12-.193-.271-.356-.445-.5a4.13 4.13 0 0 0-.489-.347l-.312-.209c-.104-.081-.213-.151-.33-.209a1.22 1.22 0 0 1-.14-.078c-.048-.032-.097-.067-.138-.108-.054-.053-.114-.096-.179-.134l-.246-.149-.38-.238c-.26-.159-.538-.282-.814-.407-.014-.007-.03-.011-.046-.015-.099-.024-.192-.064-.283-.109l-.242-.124c-.033-.017-.066-.035-.101-.047l-.282-.089-.734-.193-.89-.194-.544-.092-.332-.048-.319-.019-.64-.019-.512-.003a5.09 5.09 0 0 0-.81.084l-.642.108a.15.15 0 0 0-.087.007l-.094.034-.423.127-.666.251-.87.296-.722.205-.212.072a2.76 2.76 0 0 1-.391.138l-.314.095c-.079.026-.156.054-.238.068-.023.004-.046.013-.069.021-.211.076-.417.163-.616.265l-.063.035-.24.159a1.94 1.94 0 0 0-.536.51l-.101.144c-.045.064-.096.122-.155.172a1.05 1.05 0 0 0-.174.187l-.383.542c-.083.121-.151.251-.192.394l-.066.197c-.008.025-.02.051-.022.077-.007.099-.048.185-.104.264-.011.015-.02.032-.029.048-.045.076-.08.156-.103.242l-.07.212c-.01.033-.022.066-.027.1-.018.117-.053.228-.097.337-.052.128-.098.258-.113.398-.021.196-.069.388-.093.584-.036.299-.113.591-.175.886l-.093.438c-.009.047-.005.096-.017.142-.031.117-.036.237-.047.356l-.031.35.104.953.11.574c.039.078.054.142.058.209.013.202.038.403.069.604a1.52 1.52 0 0 0 .074.285l.087.266.077.26c.015.04.022.082.032.124.006.026.009.053.018.078l.158.401a.17.17 0 0 0 .031.046c.028.03.046.065.057.104a1.24 1.24 0 0 0 .108.24l.17.317c.008.014.014.029.024.041.049.059.083.126.107.196.225.34.384.721.615 1.059.171.249.366.477.556.71l.09.07c.086.074.152.164.214.258l.181.264a.17.17 0 0 0 .027.029 1.01 1.01 0 0 1 .17.212l.107.178.087.124c.022.026.048.053.078.068.14.065.275.142.424.185.01.003.019.008.029.013.107.06.216.114.335.147a.4.4 0 0 1 .075.029c.057.03.118.049.179.067.103.029.203.063.301.108.14.065.287.078.438.052l.322-.063a1.05 1.05 0 0 1 .444-.009c.023.005.048.006.072.005.072-.003.137.015.198.053s.124.046.192.041c.013-.001.026-.004.04-.007.055-.01.097.014.141.042.034.022.037.058.044.089s.002.068 0 .103c-.002.029-.011.058-.01.087a1.28 1.28 0 0 1-.029.278c-.034.162-.031.323.007.484l.074.286c.014.056.042.103.079.147.128.154.286.263.481.313l.156.033c.026.006.053.009.078.018a.76.76 0 0 1 .257.158c.158.15.343.24.562.26.052.005.1-.002.148-.021l.187-.071.11-.047c.071-.038.145-.066.222-.088l.308-.087c.013-.003.026-.006.039-.008.099-.019.197-.005.292.022a1.17 1.17 0 0 0 .148.033c.039.005.079.017.113.036.123.066.236.145.32.26l.073.096c.075.098.16.185.256.264.033.027.068.05.111.061.051.013.091.042.119.088.011.017.027.034.044.045l.189.119c.046.025.097.045.148.059.09.024.183.035.277.038.024.001.048 0 .072-.005a.41.41 0 0 1 .174.002c.039.009.079.009.119.006.106-.009.213-.009.319.003l.389.046c.016.002.031.008.046.013h.224c.015-.004.03-.011.046-.013.168-.018.32-.078.461-.169l.133-.089.087-.057c.077-.047.155-.091.223-.152a.45.45 0 0 1 .294-.111c.08-.003.16-.001.24.004a1.36 1.36 0 0 0 .263-.012c.114-.014.227-.027.342-.025a1.25 1.25 0 0 1 .214.023.39.39 0 0 0 .087.008c.091-.003.181-.016.269-.037a.81.81 0 0 0 .352-.181 1.85 1.85 0 0 0 .175-.175c.053-.06.089-.133.113-.21l.113-.391a1.51 1.51 0 0 0 .06-.481.94.94 0 0 1-.001-.128c.002-.028.006-.06.02-.084.069-.117.165-.195.308-.194.16.002.313-.025.457-.096a.61.61 0 0 1 .182-.059c.054-.008.103-.029.145-.063l.295-.245c.043-.037.076-.084.09-.139.02-.076.065-.133.121-.184a.73.73 0 0 0 .093-.109.72.72 0 0 0 .122-.267 2.48 2.48 0 0 1 .113-.341l.077-.219c.051-.163.046-.326-.012-.486l-.094-.229c-.063-.139-.119-.28-.14-.432-.003-.023-.014-.046-.023-.068a.63.63 0 0 1-.038-.179l-.016-.231a.68.68 0 0 1 .057-.359.7.7 0 0 0 .057-.248.44.44 0 0 1 .025-.125c.041-.11.069-.224.083-.341.011-.09.041-.171.103-.238.022-.024.035-.052.045-.083a2.53 2.53 0 0 0 .093-.421l.079-.57c.002-.013.002-.027.007-.039.044-.125.038-.258.061-.386.015-.08.006-.16-.01-.238l-.076-.368c-.029-.128-.043-.257-.043-.389a.6.6 0 0 0-.028-.213.14.14 0 0 1 0-.094c.029-.088.026-.178.019-.269l-.005-.223a4.22 4.22 0 0 0 .003-.448l-.002-.232-.011-.159c-.003-.04-.011-.079-.011-.119l.01-.376c.002-.059.019-.115.044-.169.014-.028.023-.059.034-.089.014-.037.026-.076.044-.111.039-.074.045-.159.075-.235a.64.64 0 0 0 .051-.233c0-.021.009-.041.014-.062v-1.504l-.015-.093c-.006-.039-.007-.08-.017-.118"/><path d="M18.39 24.716c-.002.007-.004.014-.007.022s-.01.018-.015.027c-.025.045-.056.082-.096.111a.41.41 0 0 1-.052.031l-.058.027c-.033.012-.065.026-.096.042-.042.023-.068.04-.093.059-.008.006-.017.011-.026.016-.016.008-.028.012-.039.014l-.037.005c-.04.006-.08.013-.119.027-.007.003-.016.002-.025.003l-.053-.01-.029-.007-.126-.032-.058-.014c-.024-.005-.049-.008-.075-.007s-.043-.005-.064-.011l-.021-.007c-.018-.006-.036-.011-.054-.014s-.029-.004-.044-.003-.022.003-.034.008c-.027.005-.044-.003-.057-.019l-.023-.026-.04-.046-.105-.109-.022-.023c-.024-.032-.044-.06-.075-.082s-.028-.053-.008-.077c.014-.012.019-.014.024-.016.017-.003.024-.002.031 0a.21.21 0 0 1 .076.059c.034.05.079.084.129.108.03.014.063.024.096.032.044.01.087.017.13.02.08.006.159-.002.236-.023.055-.014.109-.034.162-.062.014-.007.028-.015.039-.026h0c.019-.02.041-.032.067-.042a.27.27 0 0 0 .062-.035c.069-.053.144-.099.202-.165.009-.01.025-.017.036-.015.024.003.05.007.073.015.077.031.13.077.17.135.024.035.03.071.018.113"/></g><path d="M15.692 22.998l.187.011v-.007h.216c.015 0 .029 0 .043.002a.24.24 0 0 1 .05.011.23.23 0 0 1 .034.015.28.28 0 0 1 .087.076l.03.044.006.01.026.057c.014.039.021.081.018.125l-.004.071-.004.05a1.13 1.13 0 0 0 .025.316l.007.039.011.048c.005.017.009.034.012.05.021.116-.006.23-.038.342-.023.081-.069.15-.135.204-.028.023-.058.041-.091.055-.013.005-.026.01-.039.014l-.026.007-.315.05c-.019.001-.036 0-.051-.006s-.028-.016-.04-.031l-.087-.114c-.073-.099-.146-.198-.242-.276-.032-.026-.052-.061-.067-.098-.011-.027-.02-.055-.029-.083-.018-.056-.044-.108-.075-.158-.056-.09-.112-.177-.151-.272-.021-.049-.027-.096-.015-.147s.033-.102.075-.138l.004-.003c.029-.025.06-.047.093-.066s.075-.04.113-.06l.062-.033.099-.056c.007-.004.015-.008.023-.012a.33.33 0 0 1 .176-.037zm1.591-.422l.049.021.043.019a1.96 1.96 0 0 0 .183.064l.036.012.033.012.032.013c.021.008.037.019.049.034s.02.033.024.053l.002.008.003.024c.001.008.001.016 0 .024-.014.109-.011.219-.027.328-.003.026-.009.051-.015.076l-.008.032-.002.01c-.005.024-.005.05-.002.076l.004.032.008.042.028.122c.007.03.01.058-.016.081s-.025.046-.024.073v.048.072c.016.11-.005.218-.024.325l-.013.046a.86.86 0 0 1-.185.266c-.03.032-.07.05-.112.061a.44.44 0 0 1-.055.011l-.031.004c-.026-.005-.034-.008-.041-.012-.016-.009-.022-.015-.027-.021s-.01-.013-.013-.02c-.027-.053-.069-.096-.111-.135-.09-.085-.121-.192-.124-.31-.001-.059-.012-.116-.023-.174a.27.27 0 0 0-.024-.07c-.01-.021-.024-.039-.042-.055-.038-.031-.048-.056-.054-.087l-.009-.065-.045-.32c-.003-.02-.008-.039-.014-.057l-.003-.008a.23.23 0 0 0-.105-.122c-.008-.005-.014-.01-.02-.015-.029-.029-.034-.058-.029-.092a.41.41 0 0 1 .064-.171c.045-.068.099-.125.161-.171s.133-.079.212-.1a.4.4 0 0 1 .263.017zm.965-.445c.111.01.212.033.31.088a1.59 1.59 0 0 0 .171.082l.063.026.034.014c.081.036.124.085.139.161l.027.157a.65.65 0 0 1-.023.135l-.007.022c-.011.041-.014.063-.01.086.016.084.012.168.002.251l-.012.083-.068.386a.56.56 0 0 1-.063.18l-.126.213c-.017.03-.043.047-.075.056l-.13.034-.024.005c-.018.003-.038-.002-.057-.009-.029-.013-.038-.02-.047-.028s-.017-.017-.026-.025l-.149-.156c-.012-.013-.025-.026-.039-.035l-.002-.002c-.039-.025-.055-.063-.063-.106l-.055-.266a.51.51 0 0 1 .007-.276.51.51 0 0 0 .028-.157.39.39 0 0 0-.01-.088l-.007-.03-.016-.053a1.45 1.45 0 0 1-.052-.242.84.84 0 0 1 .049-.361c.004-.012.009-.023.015-.034h0c.036-.064.104-.105.178-.11.012-.001.025-.001.038 0zm1.588-.049c.011 0 .023.001.034.003l.059.009.118.019.068.012c.034.007.046.013.041.062l-.03.352v.013l-.002.296.008.126.01.129v.034l.002.134c-.003.136-.004.272-.027.406-.006.037-.017.073-.03.108a.28.28 0 0 1-.122.149c-.019.011-.039.021-.061.028-.061.021-.124.032-.189.036l-.114-.022-.01-.002c-.029-.008-.05-.027-.062-.057l-.122-.278c-.017-.041-.031-.085-.043-.128l-.042-.179c-.006-.028-.013-.058-.009-.087.007-.051.005-.101.005-.151 0-.045.003-.09.008-.135.007-.066.008-.132.003-.198l-.002-.041-.002-.026-.008-.14-.001-.041a.32.32 0 0 1 .006-.074c.014-.07.054-.129.116-.174a1.3 1.3 0 0 1 .3-.164c.033-.013.066-.018.1-.018zM14.321 5.687l.663.04.806.123a.34.34 0 0 0 .055.007 3.4 3.4 0 0 1 1.078.21l1.11.385c.343.12.674.267.987.453.091.055.188.099.283.15l.31.166c.016.009.032.02.049.027.134.055.254.134.369.222l.263.209c.109.09.224.171.343.248l.323.222a1.39 1.39 0 0 1 .257.25l.574.635c.192.187.33.411.447.649.023.047.038.099.052.151l.068.263.071.221a2.05 2.05 0 0 1 .072.245 1.08 1.08 0 0 0 .053.167c.026.065.043.132.054.2a3.5 3.5 0 0 1 .044.517c0 .051.005.101.011.151a4.39 4.39 0 0 1 .029.671 3.62 3.62 0 0 1-.063.54c-.005.026-.01.053-.02.078-.04.104-.071.212-.125.311a.85.85 0 0 0-.093.369c-.004.069.002.139.004.208l.004.144-.024.407c-.007.102.003.202.032.301l.034.132a.91.91 0 0 1 .027.253c-.006.174.005.347.02.519a.56.56 0 0 0 .041.178c.027.062.043.127.046.194.004.102.028.2.043.301a2.67 2.67 0 0 1 .007.773h0l-.006.031c-.016.081-.044.159-.046.243 0 .021-.007.042-.014.062-.034.093-.054.189-.078.285-.018.072-.047.141-.072.212l-.059.165-.313 1.174-.088.349c-.027.125-.031.254-.034.382a.53.53 0 0 0 .036.179l.167.509c.029.123.046.246.045.372-.001.072-.006.144-.028.213l-.075.228c-.01.086-.056.136-.098.188l-.102.113c-.112.111-.219.226-.317.35s-.217.204-.357.262c-.066.028-.134.032-.202.006l-.082-.032-.312-.143a.35.35 0 0 1-.14-.115c-.02-.028-.044-.053-.07-.076-.095-.087-.185-.177-.254-.286-.02-.031-.043-.062-.056-.096-.02-.053-.065-.058-.109-.066-.016-.003-.037.016-.037.035a.65.65 0 0 0 .003.088l.02.175c.005.047-.015.075-.063.087-.028.007-.058.01-.087.014a1.08 1.08 0 0 0-.342.107c-.096.051-.181.113-.243.203-.009.013-.019.026-.03.037s-.017.012-.025.018c-.006-.011-.016-.021-.018-.033l-.082-.407c-.006-.026-.015-.051-.027-.075s-.031-.027-.054-.018l-.079.037c-.04.021-.049.044-.034.085.058.094.059.195.073.292.001.007-.002.017-.007.02s-.016.001-.022-.003l-.243-.154c-.103-.075-.216-.1-.34-.092-.08.006-.158.023-.232.057-.067.031-.122.075-.159.141l-.128.222c-.013.023-.027.046-.044.066-.024.027-.054.043-.092.039-.02-.002-.035-.017-.037-.036-.001-.01 0-.021.001-.032.004-.041-.003-.079-.015-.118l-.041-.138c-.01-.037-.037-.059-.069-.073s-.097.023-.104.061c-.011.054.001.106.009.159l.012.079c0 .006-.012.02-.017.019-.029-.001-.058-.006-.087-.009a.88.88 0 0 0-.364.023c-.156.047-.284.132-.376.269l-.067.099-.081.099c-.014.016-.024.013-.038-.005-.026-.032-.041-.067-.042-.109l-.016-.287c-.001-.021 0-.044-.006-.063s-.017-.04-.032-.053c-.031-.027-.06-.024-.103.002-.034.021-.046.041-.036.08.021.079.012.159.014.238 0 .016-.003.032-.006.048-.008.041-.032.068-.073.075-.029.006-.058.008-.087.009h0l-.24.012a.4.4 0 0 1-.158-.018c-.044-.015-.084-.01-.123.01l-.118.062c-.037.036-.083.064-.139.079l-.182.05c-.028.007-.055.011-.081.013l-.032.012c-.042.018-.087.042-.124.069.019-.014-.048.055-.016.009l-.002.001-.055.065c-.041.039-.089.069-.141.088l-.08.018c-.006.008-.014.014-.027.013a.33.33 0 0 1-.087-.01c-.078-.022-.151-.014-.226.018-.081.035-.169.048-.257.054l-.167.017a.67.67 0 0 0-.211.071l-.189.105a1.49 1.49 0 0 1-.611.221l-.175.019c-.031.002-.064-.002-.095-.008s-.063-.01-.084-.04c-.004-.006-.012-.011-.019-.014-.072-.03-.119-.089-.165-.147l-.129-.163a1.82 1.82 0 0 1-.085-.126c-.008-.013-.01-.03-.013-.045-.017-.123-.018-.245.018-.365.002-.007.002-.016.005-.023.038-.098.021-.195-.007-.29l-.022-.088a.95.95 0 0 1-.021-.179c-.002-.124-.032-.243-.054-.363-.002-.01-.004-.022-.011-.03-.043-.049-.05-.112-.058-.172a.64.64 0 0 0-.069-.195c-.036-.075-.099-.109-.175-.122l-.292-.044-.406-.038-.254-.025c-.016-.003-.032-.004-.048-.002-.11.017-.219-.005-.325-.026a2.47 2.47 0 0 0-.517-.044l-.288.007c-.157.006-.315.007-.471-.02l-.296-.065c-.01-.002-.02-.008-.03-.01-.101-.016-.186-.062-.257-.136-.012-.013-.03-.023-.047-.027a.16.16 0 0 1-.089-.063c-.024-.032-.05-.064-.067-.099-.036-.073-.093-.129-.149-.186-.009-.01-.02-.018-.027-.029-.134-.202-.28-.396-.433-.584-.059-.072-.118-.145-.165-.226-.007-.011-.013-.024-.023-.033-.031-.028-.047-.064-.059-.103-.01-.034-.029-.062-.054-.087-.069-.068-.122-.148-.169-.232h0l-.137-.254c-.188-.231-.361-.471-.485-.744a.8.8 0 0 1-.08-.14l-.06-.14-.151-.344c-.008-.017-.015-.037-.028-.048-.026-.02-.037-.042-.035-.075.001-.017-.011-.035-.019-.052-.139-.295-.246-.602-.344-.912-.028-.089-.046-.179-.069-.268a5.57 5.57 0 0 1-.099-.502c-.011-.071-.029-.141-.048-.21-.053-.193-.098-.388-.117-.587-.018-.186-.024-.373-.021-.559h0v-.152l.001-.336c.001-.225.017-.448.076-.666.038-.142.054-.288.078-.432l.073-.409.028-.205c.004-.026.011-.052.018-.077l.028-.091.191-.891.134-.494c.066-.262.178-.507.276-.757l.12-.314.158-.376c.073-.151.157-.297.255-.434.109-.152.229-.295.362-.426.04-.04.074-.082.101-.133a1.59 1.59 0 0 1 .37-.458 2.25 2.25 0 0 1 .741-.434l.215-.086a.52.52 0 0 0 .064-.033l3.97-1.37c.018-.007.032-.016.045-.026l.098-.017.298-.057.562-.075.631-.027z" fill="#fff" fill-rule="nonzero"/><path d="M16.932 19.622c.015 0 .025.011.027.031s.002.032.002.048v.092c-.01.066.001.141.03.215a.34.34 0 0 1 .003.241l-.013.034-.009.02-.048.092-.063.12-.134.254c-.029.055-.071.093-.122.11-.031.01-.065.014-.102.01-.03-.003-.055-.012-.077-.026-.007-.004-.015-.009-.022-.015a.41.41 0 0 1-.073-.078c-.006-.008-.007-.02-.007-.031v-.192c.006-.079.031-.152.09-.208.042-.04.058-.088.057-.143 0-.079.028-.147.085-.2a2.6 2.6 0 0 0 .22-.247l.033-.041.008-.01c.007-.009.014-.017.021-.024h0l.008-.008c.007-.005.014-.01.02-.014a.34.34 0 0 1 .047-.027zm.828-.045l.023.003c.038.015.072.03.1.056.007.006.014.012.02.02l.025.031c.042.057.097.087.165.099h0l.016.003.037.003c.009 0 .017 0 .024 0 .031-.004.044-.021.069-.071.013-.008.02-.003.021.002s.004.017.006.025l.005.021.002.033c0 .055-.015.101-.035.144l-.033.072a.18.18 0 0 0-.01.045c-.004.044.01.084.049.114.055.042.079.088.056.157-.005.015.005.036.008.054.008.045 0 .077-.027.102-.009.008-.02.016-.034.022-.029.014-.058.029-.089.035a.25.25 0 0 1-.247-.075.5.5 0 0 1-.115-.216l-.033-.145-.014-.073-.007-.042-.031-.194c-.005-.028-.016-.056-.028-.083-.016-.039-.01-.071.017-.099h0l.007-.008.024-.02.007-.006.022-.01zm-3.967-4.814l.112.007.141.023.01.002c.015.003.03.006.045.007.106.004.204.037.301.075.185.073.352.178.503.307.136.116.269.235.384.373.031.037.057.076.075.122l.155.394a1.93 1.93 0 0 1 .077.318c.024.156.055.31.101.46.04.131.056.265.061.402h0l.016.432c.007.2-.008.4-.017.6-.001.024-.005.048-.012.071l-.066.239a.57.57 0 0 1-.086.196.18.18 0 0 0-.023.042c-.034.082-.088.152-.139.223h0l-.03.036a2.16 2.16 0 0 1-.313.381c-.007.01-.016.02-.024.03s-.023.026-.037.037l-.079.058a1.31 1.31 0 0 1-.259.137l-.47.201c-.088.038-.176.077-.271.093l-.166.022-.359.014-.359-.015a1.02 1.02 0 0 1-.166-.028c-.093-.023-.189-.027-.282-.055a2.02 2.02 0 0 1-.589-.298l-.095-.07a2.75 2.75 0 0 1-.268-.231c-.11-.109-.212-.224-.274-.37a1.11 1.11 0 0 0-.099-.184l-.041-.057c-.032-.041-.056-.091-.078-.139a1.85 1.85 0 0 1-.102-.269c-.016-.059-.041-.116-.069-.17-.057-.11-.09-.227-.116-.348-.002-.008-.002-.016-.003-.024l-.013-.399a1.68 1.68 0 0 1 .133-.604l.037-.082a2.02 2.02 0 0 1 .246-.373l.082-.098c.099-.116.192-.236.274-.364a3.13 3.13 0 0 1 .241-.318 1.19 1.19 0 0 1 .275-.241 1.59 1.59 0 0 0 .268-.214.6.6 0 0 1 .122-.09c.099-.058.203-.106.314-.138.085-.024.172-.034.26-.045l.277-.033.096-.006c.027-.002.054-.003.079-.009.11-.028.219-.035.332-.021zm5.83 1.241c.075.002.147.013.218.034a.71.71 0 0 1 .203.099l.139.094c.145.104.266.229.349.389a2.82 2.82 0 0 1 .178.453 1.37 1.37 0 0 1 .053.339.76.76 0 0 1-.007.131.87.87 0 0 1-.017.287c-.005.182-.011.363-.142.512l-.098.103c-.029.037-.069.066-.107.095s-.077.058-.117.083-.083.049-.127.067c-.22.088-.444.168-.676.219-.07.016-.143.019-.214.022-.027.001-.055-.004-.083-.01l-.027-.006-.18-.039-.179-.039c-.007-.002-.014-.004-.021-.007-.02-.009-.037-.023-.054-.038-.079-.072-.147-.154-.209-.241a1.48 1.48 0 0 0-.083-.107c-.057-.068-.101-.144-.131-.227l-.075-.228-.12-.415-.061-.248c-.013-.055-.017-.109-.014-.163a.94.94 0 0 1 .023-.162l.058-.265c.008-.043.034-.083.058-.121l.161-.248c.024-.037.055-.065.091-.089a1.02 1.02 0 0 1 .247-.112c.155-.051.312-.089.476-.098.029-.002.058-.008.087-.013l.063-.012.188-.032c.051-.006.102-.008.151-.007z" fill="#000" fill-rule="nonzero"/><path d="M18.129 24.453c.024.003.05.007.073.015.077.031.13.077.17.135.024.035.03.071.018.113-.002.007-.004.014-.007.022s-.01.018-.015.027a.33.33 0 0 1-.096.11h0a.44.44 0 0 1-.051.031l-.058.027a.85.85 0 0 0-.096.042.69.69 0 0 0-.093.059c-.008.006-.017.011-.026.016-.016.008-.028.012-.039.014l-.037.005c-.04.006-.08.013-.119.027-.007.003-.016.002-.025.003l-.053-.01-.029-.007-.126-.032-.058-.014c-.025-.005-.049-.008-.075-.007-.021.001-.043-.005-.064-.011l-.021-.007-.054-.014c-.015-.003-.029-.004-.044-.003s-.022.004-.034.008h0c-.027.006-.044-.003-.057-.018l-.023-.026-.04-.046-.088-.092-.039-.04c-.024-.032-.044-.06-.075-.082s-.028-.053-.008-.077c.014-.012.019-.014.024-.016h0l.008-.003h.013l.01.002a.21.21 0 0 1 .076.059c.034.05.079.084.129.108a.5.5 0 0 0 .097.032c.044.01.087.017.13.02.08.006.159-.002.236-.023.055-.014.109-.034.162-.062.014-.007.029-.015.039-.026h0l.031-.025.036-.017a.27.27 0 0 0 .062-.035c.069-.053.144-.099.202-.165.009-.01.025-.017.036-.015zm2.262-2.032c.016.003.031.007.046.013l.246.095.047.016c.018.005.036.009.055.009h0 .04l.018.002.036.006a.99.99 0 0 0 .207.011h.044l.044.004.013.006.008.006.009.009c.003.015-.009.038-.022.044h0c-.019.006-.03.008-.041.01-.089.015-.154.066-.198.142h0c-.013.023-.019.047-.024.07l-.015.109c-.01.109-.004.218.022.327a1.17 1.17 0 0 1 .025.133c.013.104.003.207-.027.308a1.46 1.46 0 0 1-.083.218l-.038.068-.111.185-.027.041-.04.057-.033.046c-.012.017-.025.033-.04.046a.3.3 0 0 1-.159.074l-.346.063c-.058.01-.116.014-.174.021h0l-.001-.009-.016.001-.117.007-.043-.061-.037-.056c-.01-.016-.007-.029.011-.039.031-.017.065-.026.1-.026.008 0 .016-.001.025-.002l.036-.003a.37.37 0 0 0 .161-.073l.178-.122.108-.082c.02-.016.038-.035.053-.055.022-.031.034-.055.041-.081l.05-.193.034-.221c.006-.034.008-.066.004-.099-.001-.011-.004-.023-.007-.035s-.006-.026-.008-.039c-.014-.073-.016-.148-.021-.222l-.004-.053-.005-.06c-.011-.103-.029-.204-.063-.303-.007-.019-.008-.042-.006-.062l.006-.056.007-.059a.87.87 0 0 0 .006-.116c.012-.021.019-.022.026-.021zm-5.937 1.214l.045.002c.089.007.175.033.26.065.037.014.044.027.042.066-.001.018-.011.028-.028.034h0l-.09.031-.029.009a.34.34 0 0 1-.087.018 1.34 1.34 0 0 1-.106-.001l-.109-.006c-.032-.002-.063-.007-.095-.01s-.054-.003-.08 0-.062.01-.092.022l-.005.002-.085.035c-.065.03-.133.05-.203.064l-.088.014c-.057.006-.109.023-.159.049l-.185.094c-.016.008-.031.012-.046.012h0l-.022-.002a.18.18 0 0 1-.022-.005.34.34 0 0 1-.039-.014c-.026-.011-.028-.048-.007-.067h0l.001-.001.012-.008.092-.05.077-.04.059-.024.263-.093.092-.035.073-.034.06-.033c.066-.039.135-.067.212-.075l.044-.004c.036 0 .072-.002.108-.006l.091-.008a.62.62 0 0 1 .091.001zm8.231-13.95c.021-.015.047-.001.065.014.025.02.051.04.069.066a1.91 1.91 0 0 1 .235.426l.045.111.173.531.035.136.02.103.039.312c.003.037.012.073.018.11h0l.025.156c-.003.099-.011.171-.036.238-.038.1-.043.202-.037.307l.005.096.002.072c0 .072-.004.143-.021.214-.003.013-.004.027-.003.04a.35.35 0 0 1-.029.14c-.049.122-.076.25-.084.381-.003.054-.018.105-.041.154l-.081.156c-.056.099-.088.205-.108.316-.015.083-.01.164.009.246l.057.265c.002.008.002.016.002.024.001.155.03.308.056.46a2.51 2.51 0 0 1 .042.461v.224l.004.162.008.121a2.74 2.74 0 0 0 .057.359 2.07 2.07 0 0 1 .048.3l.004.072c-.003.072-.004.142.013.213.012.05 0 .102-.017.15-.022.064-.027.13-.038.196l-.051.34-.028.124-.099.368c.01.018.013.042.003.069-.153.404-.205.849-.306 1.269-.061.254-.091.496-.037.755l.083.345.041.101.023.051.034.079c.032.08.057.161.069.248l.034.197c.016.106-.004.206-.055.301-.029.054-.051.112-.076.167l-.092.195-.088.161a2.01 2.01 0 0 1-.233.353l-.115.144c-.017.02-.037.038-.058.053a.71.71 0 0 1-.202.096c-.047.016-.09.048-.144.043l-.143-.01-.095-.011c0-.027.01-.037.02-.045h0l.122-.104.081-.077c.014-.013.026-.027.042-.036.054-.029.089-.074.123-.122.02-.028.044-.053.067-.079l.196-.222a.49.49 0 0 0 .093-.148c.005-.012.013-.024.02-.034h0l.034-.055c.074-.129.109-.27.114-.419l-.001-.376c-.001-.09-.037-.171-.064-.254-.011-.033-.027-.064-.039-.096s-.024-.06-.028-.091c-.01-.07-.039-.132-.075-.192-.054-.09-.084-.19-.109-.291-.01-.043-.007-.09-.007-.135l.003-.112.007-.12.007-.045.016-.137c.001-.059.027-.114.053-.167.009-.019.017-.038.024-.057.081-.711.445-1.394.465-2.117.001-.034.017-.058.038-.073l.002-.027c.005-.085.016-.169.038-.253.016-.059.025-.12.027-.181s-.002-.122-.012-.184a.54.54 0 0 1-.009-.079c-.006-.262-.051-.52-.076-.78l-.017-.319c-.003-.164-.04-.322-.082-.479-.046-.17-.066-.342-.059-.515l.016-.174a1.87 1.87 0 0 1 .109-.425c.012-.029.015-.062.021-.093h0l.042-.252c.005-.032.019-.061.039-.086a.18.18 0 0 0 .037-.087l.061-.379.041-.301c.007-.045.005-.089-.002-.135-.008-.055-.016-.112-.011-.167.009-.094-.006-.186-.017-.278l-.01-.096c-.003-.142-.025-.281-.041-.421l-.054-.477c-.011-.096-.029-.19-.063-.28-.072-.19-.13-.383-.183-.579-.006-.021-.009-.042-.01-.063 0-.014-.002-.032.002-.044zM9.521 21.599a4.36 4.36 0 0 1 1.061.028l.116-.011c.069-.001.138.004.207.01a2.19 2.19 0 0 1 .394.062l.144.048c.015.005.031.01.044.02a.13.13 0 0 1 .03.029c.006.036-.021.042-.041.047a.63.63 0 0 1-.124.019.46.46 0 0 1-.062-.001c-.021-.002-.041-.004-.062-.009-.005.009-.014.015-.027.014l-.408-.016-.265.007-.016.001c-.031.009-.063.013-.095.014a1.85 1.85 0 0 0-.237.031c-.034.006-.07.01-.103.005-.134-.019-.27-.035-.399-.079l-.127-.046c-.017-.007-.035-.019-.052-.019-.053 0-.086-.038-.127-.062-.014-.008-.013-.021-.007-.035.018-.031.032-.04.053-.041h0l.084-.006c.005-.005.012-.01.021-.01zm4.708-6.454l.007.002c.018.006.024.009.03.013l.04.026.024.017c.023.015.047.027.073.035.017.006.036.01.055.011s.04.007.054.018.027.029.032.052c.003.014.005.025.004.032s-.006.012-.016.016-.013.003-.023.004l-.207.02c-.048.001-.092-.004-.135-.011a.46.46 0 0 0-.155.003l-.051.01-.016.004-.421.123-.042.01-.075.016c-.055.011-.11.016-.163.037-.024.009-.052.01-.079.01a.42.42 0 0 0-.167.034.51.51 0 0 0-.074.038l-.058.038c-.058.039-.113.082-.163.132s-.096.085-.149.12l-.055.033-.055.032a.56.56 0 0 0-.142.103h0l-.041.045-.036.046c-.034.047-.063.099-.09.152a.4.4 0 0 0-.036.105c-.004.021-.01.041-.017.06-.012.033-.028.064-.048.092-.06.079-.103.159-.144.24a.92.92 0 0 1-.047.08l-.033.049a.36.36 0 0 0-.064.136l-.005.02c-.016.069-.037.137-.067.201l-.02.042c-.01.019-.017.038-.022.058a.36.36 0 0 0-.013.096l-.002.055-.011.152-.014.12-.012.091-.015.133-.007.069c-.002.022-.002.043-.001.064.003.064.018.126.05.184.013.024.024.05.034.075a1.2 1.2 0 0 1 .053.239h0c.001.007-.003.015-.004.022h0l-.022-.006-.065-.046-.032-.025a.21.21 0 0 1-.038-.042c-.012-.017-.023-.035-.028-.055-.003-.013-.005-.026-.006-.04-.002-.087-.042-.156-.09-.226a2.03 2.03 0 0 1-.185-.328l-.046-.117c-.011-.032-.016-.065-.017-.099 0-.017 0-.034.003-.051l.015-.199c.002-.12.023-.221.066-.318l.107-.242.013-.028.046-.11c.031-.074.062-.148.114-.21l.038-.048c.055-.073.103-.151.144-.234l.056-.106c.033-.059.075-.109.122-.157a2.48 2.48 0 0 1 .195-.176l.109-.087.105-.083.055-.046.059-.051.05-.044.088-.072c.072-.055.147-.103.23-.14l.062-.024.103-.035c.009-.003.017-.005.026-.007l.087-.023.064-.016a1.07 1.07 0 0 1 .236-.036h0l.176-.01.048-.005.054-.009a1.08 1.08 0 0 0 .101-.025c.03-.009.062-.013.091-.016l.027-.004.053.006.031.003.036.004.033.003c.064.006.127.005.187-.02.014-.006.027-.007.039-.006h0zm4.946 1.29c.018 0 .028.015.022.033a.2.2 0 0 1-.028.056c-.016.021-.038.037-.056.057l-.133.148-.106.119-.096.107c-.05.06-.086.129-.094.208-.007.072-.028.141-.048.21l-.027.1a.35.35 0 0 0-.008.158 1.29 1.29 0 0 1 .013.254.5.5 0 0 0 .01.119c.018.088.034.177.072.261.012.028.012.05.004.064.004.016-.002.036-.021.041-.154.042-.174-.209-.175-.371-.035-.133-.07-.266-.074-.406-.004-.161.006-.319.054-.469-.017-.096-.014-.192.004-.287l.013-.086c.008-.074.044-.123.116-.146a.59.59 0 0 0 .109-.048c.075-.042.155-.069.24-.083l.156-.032a.27.27 0 0 1 .055-.005zm1.412-8.997l.012.002.197.121.088.056c.152.078.296.169.436.266l.537.375.016.013.059.047.338.305.016.015.004.004.009.01.005.011-.001.008v.002c-.022.013-.029.014-.034.015l-.116.013-.023.001c-.044 0-.079-.006-.111-.024l-.037-.016c-.041-.01-.07-.035-.098-.066l-.005-.005-.038-.04-.119-.118-.092-.089c-.093-.103-.193-.198-.296-.291a1 1 0 0 0-.127-.096l-.14-.076c-.093-.043-.172-.105-.249-.171h0l-.192-.169c-.012-.011-.023-.022-.031-.035s-.016-.032-.015-.054c.003-.014.011-.018.02-.013z" fill="#e7503d" fill-rule="nonzero"/></svg>