<svg height="18" viewBox="0 0 15 18" width="15" xmlns="http://www.w3.org/2000/svg"><path d="m18.2531152 2.99998734c.2113224-.00085784.4132086.08745772.5559991.24324215.1189921.12982036.1877427.29645384.1962244.4701788l-.0022235.10484818-1.3785 15.13500003c-.0961282 1.1088922-.9888777 1.9704002-2.0839925 2.0419923l-.1577575.0048692h-7.75949998c-1.11413795.0062905-2.05476238-.8049005-2.2256397-1.8900371l-.0191103-.1568244-1.3755-15.13500003c-.01923232-.21044722.05121045-.41924255.19400094-.57502698.11899208-.12982036.27902284-.21278734.45135413-.23633311l.10464493-.00690904zm-1.0481152 4h-11.408l1.07601151 11.82373246c.03027938.3493172.29978368.6242991.64476031.6697351l.1055934.0066179h7.76606058c.3502987.0015177.6484156-.2414558.7251598-.5789423l.0162129-.1039313z" fill="#fff" transform="translate(-4 -3)"/></svg>