<svg height="24" viewBox="0 0 24 24" width="24" xmlns="http://www.w3.org/2000/svg"><g fill="none" fill-rule="evenodd"><path d="m0 0h24v24h-24z"/><path d="m18.787868 6.19786797-.985736-.98573594c-.1171573-.11715728-.3071067-.11715728-.424264 0l-5.377868 5.37786797-5.37786797-5.37786797c-.11715728-.11715728-.30710678-.11715728-.42426406 0l-.98573594.98573594c-.11715728.11715728-.11715728.30710678 0 .42426406l5.37786797 5.37786797-5.37786797 5.377868c-.11715728.1171573-.11715728.3071067 0 .424264l.98573594.985736c.11715728.1171573.30710678.1171573.42426406 0l5.37786797-5.377868 5.377868 5.377868c.1171573.1171573.3071067.1171573.424264 0l.985736-.985736c.1171573-.1171573.1171573-.3071067 0-.424264l-5.377868-5.377868 5.377868-5.37786797c.1171573-.11715728.1171573-.30710678 0-.42426406z" fill="#fff"/></g></svg>