<svg height="24" viewBox="0 0 24 24" width="24" xmlns="http://www.w3.org/2000/svg"><path d="m12.9865023 3.00082749c1.5675939.00318434 1.91219.01636482 2.7244977.05317251 1.4625.06675 2.74725.42525 3.7785 1.4565s1.38975 2.316 1.4565 3.7785c.0368077.81230769.0499882 1.15690385.0531725 2.7244977l.0007796.7138006.0000479.2727017c0 .0940096-.0000155.1848572-.0000479.2727017l-.0007796.7138006c-.0031843 1.5675939-.0163648 1.91219-.0531725 2.7244977-.06675 1.4625-.42525 2.74725-1.4565 3.7785s-2.316 1.38975-3.7785 1.4565c-.8123077.0368077-1.1569038.0499882-2.7244977.0531725l-.7138006.0007796-.2727017.0000479c-.0940096 0-.1848572-.0000155-.2727017-.0000479l-.7138006-.0007796c-1.56759385-.0031843-1.91219001-.0163648-2.7244977-.0531725-1.4625-.06675-2.74725-.42525-3.7785-1.4565s-1.38975-2.316-1.4565-3.7785c-.03680769-.8123077-.04998817-1.1569038-.05317251-2.7244977v-1.9730046c.00318434-1.56759385.01636482-1.91219001.05317251-2.7244977.06675-1.4625.42525-2.74725 1.4565-3.7785s2.316-1.38975 3.7785-1.4565c.81230769-.03680769 1.15690385-.04998817 2.7244977-.05317251zm-.208113 1.62110537h-1.5567786c-1.1608423.00151632-1.6793762.00737424-2.15645972.02308176l-.19004698.00682138c-.158904.006144-.322104.013464-.511854.022164-1.0245.0465-1.97475.252-2.706.98325s-.93675 1.6815-.98325 2.706c-.0087.18975-.01602.35295-.022164.511854l-.00682138.19004698c-.01570752.47708352-.02156544.99561742-.02308176 2.15645972v1.5567786c.00151632 1.1608423.00737424 1.6793762.02308176 2.1564597l.00682138.190047c.006144.158904.013464.322104.022164.511854.0465 1.0245.252 1.97475.98325 2.706s1.6815.93675 2.706.98325c.18975.0087.35295.01602.511854.022164l.19004698.0068214c.47708352.0157075.99561742.0215654 2.15645972.0230817h1.5567786c1.1608423-.0015163 1.6793762-.0073742 2.1564597-.0230817l.190047-.0068214c.158904-.006144.322104-.013464.511854-.022164 1.0245-.0465 1.97475-.252 2.706-.98325s.93675-1.6815.98325-2.706c.0087-.18975.01602-.35295.022164-.511854l.0068214-.190047c.0157075-.4770835.0215654-.9956174.0230817-2.1564597v-1.5567786c-.0015163-1.1608423-.0073742-1.6793762-.0230817-2.15645972l-.0068214-.19004698c-.006144-.158904-.013464-.322104-.022164-.511854-.0465-1.0245-.252-1.97475-.98325-2.706s-1.6815-.93675-2.706-.98325c-.18975-.0087-.35295-.01602-.511854-.022164l-.190047-.00682138c-.4770835-.01570752-.9956174-.02156544-2.1564597-.02308176zm-.7783893 2.75656714c2.55225 0 4.6215 2.06925 4.6215 4.6215s-2.06925 4.6215-4.6215 4.6215-4.6215-2.06925-4.6215-4.6215 2.06925-4.6215 4.6215-4.6215zm0 1.6215c-1.65675 0-3 1.34325-3 3s1.34325 3 3 3 3-1.34325 3-3-1.34325-3-3-3zm4.8045-2.8845c.5964675 0 1.08.48353247 1.08 1.08s-.4835325 1.08-1.08 1.08-1.08-.48353247-1.08-1.08.4835325-1.08 1.08-1.08z" fill="#fff" fill-rule="evenodd"/></svg>