<svg height="24" viewBox="0 0 24 24" width="24" xmlns="http://www.w3.org/2000/svg"><path d="m21 6.73076923c-.675.34615385-1.35.46153846-2.1375.57692308.7875-.46153846 1.35-1.15384616 1.575-2.07692308-.675.46153846-1.4625.69230769-2.3625.92307692-.675-.69230769-1.6875-1.15384615-2.7-1.15384615-1.9125 0-3.6 1.73076923-3.6 3.80769231 0 .34615384 0 .57692307.1125.80769231-3.0375-.11538462-5.85-1.61538462-7.65-3.92307693-.3375.57692308-.45 1.15384616-.45 1.96153846 0 1.26923077.675 2.42307695 1.6875 3.11538465-.5625 0-1.125-.2307693-1.6875-.4615385 0 1.8461539 1.2375 3.3461539 2.925 3.6923077-.3375.1153846-.675.1153846-1.0125.1153846-.225 0-.45 0-.675-.1153846.45 1.5 1.8 2.6538462 3.4875 2.6538462-1.2375 1.0384615-2.8125 1.6153846-4.6125 1.6153846-.3375 0-.5625 0-.9 0 1.6875 1.0384615 3.6 1.7307692 5.625 1.7307692 6.75 0 10.4625-5.7692308 10.4625-10.73076923 0-.11538462 0-.34615385 0-.46153846.7875-.57692308 1.4625-1.26923077 1.9125-2.07692308z" fill="#fff" fill-rule="evenodd"/></svg>